<?xml version="1.0" encoding="UTF-8" standalone="no"?>
<!DOCTYPE svg PUBLIC "-//W3C//DTD SVG 1.1//EN" "http://www.w3.org/Graphics/SVG/1.1/DTD/svg11.dtd">
<svg width="100%" height="100%" viewBox="0 0 750 750" version="1.1" xmlns="http://www.w3.org/2000/svg" xmlns:xlink="http://www.w3.org/1999/xlink" xml:space="preserve" xmlns:serif="http://www.serif.com/" style="fill-rule:evenodd;clip-rule:evenodd;stroke-linejoin:round;stroke-miterlimit:2;">
    <g transform="matrix(1.07841,0,0,1.08451,-28.8915,-31.4769)">
        <path d="M711.1,322.4C700.2,329.1 688.1,330.2 677.2,329.5C658.2,330 641.2,326.3 624.1,324.1C602.7,321.4 577,333.5 566.5,351.9C563,358 562.8,364.4 564.1,370.8C565.6,378.3 572.1,381.7 580.4,379.8C589.4,377.7 598.3,375.1 607.2,372.9C610.1,372.2 613.1,371.5 616,371.4C629.2,370.7 635.1,375.1 637.5,387.1C639.8,398.6 634.4,408.1 623.1,411.7C611.4,415.4 599.3,414.4 587.4,412.5C579.2,411.2 571,410.6 562.7,410.8C556.9,411 551.3,412.5 549.4,418.5C547.5,424.7 550.8,429.6 555.7,433.4C564.1,440.1 574.5,441.4 584.5,443.2C593.1,444.8 601.9,445.3 610.5,446.5C629.4,449 639,467.2 631.7,486.3C624.3,505.8 606.2,512.8 587.9,502.6C581.6,499.1 575.7,494.7 569.9,490.4C556.6,480.5 542.2,476.8 526.1,481.9C514.5,485.5 509.8,493.4 511.7,505.5C514.1,520.6 522.1,533.1 531.5,544.5C559.1,578.2 587.2,611.4 614.7,645C625.5,658.2 635.9,671.8 637.1,689.9C637.4,695.2 637.1,700.5 635,705.4C629,719.6 620.1,723.6 600.7,718.4C583.1,713.7 572.6,700.1 564.1,684.8C554.9,668.1 548.3,650.2 539.9,633.2C524.2,601.3 513,567.4 496.3,536.1C490.1,524.6 482.9,513.7 469.7,508.8C464.8,507 459.9,506.8 454.9,507.3C448.5,508 444.1,513.6 443.8,521.3C443.4,532.8 447.3,543.5 451,554.1C458.5,575.6 466.3,596.9 469,619.7C471.3,639.2 462.5,657.6 444.8,664.4C422.3,673 397.2,660 396.8,634.5C396.5,617.7 402.4,602.1 406,586C408.4,575.2 410.7,564.5 410.3,553.4C409.5,529.7 389.4,514.7 366.9,521.7C348.7,527.3 337.7,539.7 335.5,558.8C334.1,570.7 333.9,582.7 332.7,594.7C330.3,618.6 321.8,639.9 304.2,656.7C274.1,685.4 231.1,669.5 216.9,646.5C208.1,632.1 207.5,617.2 214.1,602C223,581.4 235.2,562.8 250.7,546.5C255.9,541.1 260.8,535.4 264.7,528.9C271.8,517.2 270.3,505.5 260.3,496.3C243.7,480.9 222.1,476.4 200.7,487.2C181.4,496.9 164.8,510.7 148.8,525.1C139.5,533.5 130.6,542.4 119.9,548.9C108.7,555.7 96.3,558.7 83.2,556.1C46.2,548.8 24.4,527.6 27,492.9C29.8,455 60.4,429.4 95.9,433C121.3,435.6 146.5,439.5 172.1,438.6C178.7,438.4 185,437.4 191.2,435.4C206.8,430.2 212,414.5 202.6,401.1C197.8,394.3 191.2,389.2 185.5,383.2C185,382.7 184.4,382.2 183.8,381.7C165.7,364.1 170.1,346.9 194.4,339.4C196.8,338.7 199.1,337.7 201.4,336.8C214.4,332 217.5,318.9 208.3,308.2C200.9,299.6 190.6,297.3 180.4,294.7C169.7,292 159,289.6 148.6,285.8C126.5,277.7 115.9,256.2 123,233.7C128.2,217.1 148.2,208.3 166.2,214.5C177.1,218.3 186.2,224.5 194.3,232.6C206.9,245.1 219.4,257.7 231.9,270.2C236,274.3 240.6,277.7 245.8,280.2C249.9,282.1 253.6,282 256.9,278.9C260.2,275.9 262.1,272.3 261,267.5C259.4,260.9 255.3,255.9 250.9,251C242.1,241.1 233.1,231.4 224.3,221.4C219.7,216.1 215.4,210.6 212.5,204.1C203.3,184.2 216.8,162.6 238.9,161.4C254.1,160.6 265.9,167.7 276.7,177C284.1,183.4 290.6,190.7 295.7,199.1C297.9,202.7 300.9,205.9 303.1,209.5C310.2,220.8 320.3,225.8 333.6,224.5C344.3,223.5 355,222.6 364.9,217.6C372.8,213.6 376.5,207.4 376.8,198.4C377.2,182.2 369.3,169.1 361.5,155.9C354.1,143.4 345.7,131.6 338.6,118.9C325.3,95.2 325,71 338.8,47.5C350.9,27 375.6,23.3 397.2,37.7C421.8,54.1 428.8,71.8 422.7,100.7C419.3,116.8 413,132.2 411.6,148.8C410.7,159.7 414.2,168.4 421.1,176.2C425.4,181 432.9,181.7 439,178.4C448.7,173.1 453.8,163.7 459.6,155.1C468.5,141.8 476.4,127.8 487.3,116C499.7,102.5 511.6,100.3 525.9,109C534.1,114 538.1,121.3 538.5,130.7C538.8,137.8 537.5,144.6 536.4,151.6C532.8,174.7 543.7,187.5 566.9,188.2C579.1,188.6 590.8,186.1 602.6,184.1C608.1,183.2 613.5,182.8 619,183C631.1,183.5 641,188 646.1,199.7C651.1,211.2 647.9,225.4 638.7,234.3C629.6,243.2 617.8,247.9 607.2,254.6C600.6,258.7 594.2,263.1 588.8,268.8C585.3,272.6 582.5,277 584.8,282.3C587,287.4 591.7,289.3 597,289.8C609.2,290.8 620.8,287.4 632.6,285.4C652.8,281.9 672.6,276.4 693.3,276.2C709.3,276 720.8,286.7 722,302.8C723.5,312.2 718.3,318 711.1,322.4Z" style="fill:white;fill-rule:nonzero;"/>
    </g>
</svg>
